<?xml version="1.0" encoding="UTF-8" standalone="no"?>
<!-- Created with Inkscape (http://www.inkscape.org/) -->

<svg
   xmlns:dc="http://purl.org/dc/elements/1.1/"
   xmlns:cc="http://creativecommons.org/ns#"
   xmlns:rdf="http://www.w3.org/1999/02/22-rdf-syntax-ns#"
   xmlns:svg="http://www.w3.org/2000/svg"
   xmlns="http://www.w3.org/2000/svg"
   xmlns:sodipodi="http://sodipodi.sourceforge.net/DTD/sodipodi-0.dtd"
   xmlns:inkscape="http://www.inkscape.org/namespaces/inkscape"
   width="210mm"
   height="297mm"
   viewBox="0 0 210 297"
   version="1.1"
   id="svg8"
   inkscape:version="0.92.4 5da689c313, 2019-01-14"
   sodipodi:docname="snoopy-icon.svg">
  <defs
     id="defs2" />
  <sodipodi:namedview
     id="base"
     pagecolor="#ffffff"
     bordercolor="#666666"
     borderopacity="1.0"
     inkscape:pageopacity="0.0"
     inkscape:pageshadow="2"
     inkscape:zoom="0.98994949"
     inkscape:cx="137.98468"
     inkscape:cy="529.08627"
     inkscape:document-units="mm"
     inkscape:current-layer="layer1"
     showgrid="false"
     inkscape:window-width="1920"
     inkscape:window-height="978"
     inkscape:window-x="0"
     inkscape:window-y="32"
     inkscape:window-maximized="1" />
  <metadata
     id="metadata5">
    <rdf:RDF>
      <cc:Work
         rdf:about="">
        <dc:format>image/svg+xml</dc:format>
        <dc:type
           rdf:resource="http://purl.org/dc/dcmitype/StillImage" />
        <dc:title></dc:title>
      </cc:Work>
    </rdf:RDF>
  </metadata>
  <g
     inkscape:label="Layer 1"
     inkscape:groupmode="layer"
     id="layer1">
    <path
       style="fill:#000000;stroke-width:0.26458335"
       d="m 22.274951,190.90621 0.19014,-6.68228 -0.824613,-0.16492 c -0.453536,-0.0907 -0.884264,-0.26144 -0.957175,-0.37941 -0.07291,-0.11798 -0.516917,-0.0568 -0.986682,0.136 -0.612368,0.2513 -1.528106,0.30296 -3.235367,0.18253 l -2.38125,-0.16798 -0.967148,-1.85209 c -0.531929,-1.01864 -1.077256,-1.97424 -1.211836,-2.12354 -1.066039,-1.18267 -1.148745,-1.5772 -0.864521,-4.12408 0.152439,-1.36599 0.405757,-2.87951 0.562922,-3.36336 0.157168,-0.48386 0.210502,-1.38158 0.118523,-1.99494 -0.110123,-0.73434 -0.02371,-1.5182 0.253079,-2.29526 0.231172,-0.64904 0.547211,-2.13257 0.70231,-3.29673 0.2691,-2.01987 0.362712,-3.13309 0.589608,-7.01146 0.05533,-0.94589 0.290846,-2.07698 0.523354,-2.51354 0.232508,-0.43657 0.423473,-1.11343 0.42437,-1.50413 7.94e-4,-0.39071 0.136158,-1.04556 0.300583,-1.45521 0.314177,-0.78276 0.570921,-2.9819 1.013635,-8.68233 0.14692,-1.89177 0.338878,-3.88607 0.426569,-4.43177 l 0.15944,-0.99219 h 2.622577 c 1.442416,0 2.61879,-0.0893 2.614163,-0.19844 -0.0046,-0.10914 -0.185658,-0.43288 -0.402289,-0.71943 -0.966295,-1.27816 -0.959212,-3.22682 0.02013,-5.53788 0.188868,-0.44569 0.128495,-0.48141 -0.533016,-0.31538 -0.887728,0.2228 -1.183191,-0.1196 -1.18903,-1.37795 -0.0053,-1.1358 0.573447,-2.2291 1.419648,-2.68197 0.674595,-0.36104 0.675061,-0.36385 0.633003,-3.8271 -0.03729,-3.07068 0.02878,-3.6468 0.579474,-5.05331 1.216147,-3.1061 2.73467,-4.78084 5.102887,-5.62784 0.971338,-0.3474 1.256771,-0.57896 1.256771,-1.01953 0,-1.31127 1.923838,-2.3863 3.474545,-1.94156 1.195425,0.34284 2.081705,1.26103 2.081705,2.15665 0,0.54934 0.210984,0.87982 0.784233,1.22844 0.899932,0.54728 2.227426,2.13393 2.914988,3.48405 0.569873,1.11902 1.352098,4.30041 2.126525,8.64877 0.315881,1.77365 0.733214,3.44053 0.927407,3.70417 0.328809,0.4464 0.417579,0.40424 1.291244,-0.61329 2.689632,-3.1325 6.850499,-4.20295 10.119747,-2.60345 2.060218,1.00797 3.453857,2.85195 4.44315,5.8789 0.552945,1.69186 0.970415,1.84008 0.597927,0.21229 -0.592698,-2.59009 0.471556,-5.52934 2.950909,-8.14979 1.217043,-1.2863 2.379736,-1.34634 3.956267,-0.20431 1.988084,1.44016 3.836397,6.29346 4.533926,11.90519 0.153273,1.23311 0.278678,2.2749 0.278678,2.3151 0,0.0402 0.274201,0.0731 0.609335,0.0731 0.335135,0 1.083567,0.34875 1.663182,0.77501 l 1.053848,0.775 0.706597,3.65677 c 0.388628,2.01122 0.888164,5.32363 1.11008,7.36093 0.664065,6.09643 0.949061,7.80523 1.614827,9.68228 0.22739,0.6411 0.58915,2.41579 0.803915,3.94376 0.214765,1.52797 0.505555,3.19484 0.646205,3.70416 0.14065,0.50933 0.260615,1.46183 0.266586,2.11667 0.01252,1.37095 0.614461,5.29509 1.000302,6.52096 0.63385,2.01381 0.491652,3.29359 -0.592865,5.33576 l -1.02752,1.93484 -1.744435,-0.18795 c -2.102535,-0.22654 -6.829756,-0.2721 -7.034059,-0.0678 -0.249684,0.24968 0.477004,17.44857 0.744786,17.62956 H 22.829592 c -1.087086,-2.76577 -1.070623,-6.29351 -0.554641,-10.19869 z m 18.386842,8.40421 c 1.382657,0.2741 2.118794,0.2753 3.836458,0.006 1.169027,-0.1831 2.419186,-0.51767 2.778128,-0.74347 0.358944,-0.2258 2.085351,-0.68404 3.836459,-1.01829 6.019817,-2.85121 13.536817,3.98853 15.108846,-1.42164 -0.07424,-1.96453 -0.213998,-5.68523 -0.310581,-8.26823 l -0.175609,-4.69635 h -1.449242 -1.449245 l 0.604255,0.4893 c 0.592977,0.48016 0.481188,0.49296 -5.98996,0.68611 -12.407779,0.37033 -14.533314,0.43546 -15.986922,0.48989 -0.800365,0.03 -1.534713,-0.0558 -1.631887,-0.1905 -0.312666,-0.43356 -1.35596,-0.44002 -2.253818,-0.014 -0.722122,0.34267 -1.505792,0.38548 -4.513345,0.24654 -2.72837,-0.12603 -4.261511,-0.0644 -6.124159,0.24605 -1.366568,0.22779 -2.513389,0.447 -2.548494,0.48714 -0.03511,0.0401 -0.149905,2.83871 -0.255114,6.21907 l -0.191283,6.14611 2.767463,-0.0212 c 5.194313,3.03647 7.357288,0.10132 13.94805,1.35747 z m -4.356788,-6.47856 c -1.247042,-0.61345 -1.5836,-0.65124 -5.86808,-0.65904 -4.829392,-0.009 -5.111335,-0.0782 -5.517954,-1.35939 -0.286555,-0.90286 0.255524,-1.1946 1.398185,-0.7525 0.743093,0.28751 1.980703,0.36586 4.932177,0.31225 3.562009,-0.0647 4.051575,-0.0176 5.101045,0.49041 1.144945,0.55426 1.203674,0.55615 4.27681,0.13771 1.713759,-0.23334 4.022876,-0.42426 5.131374,-0.42426 1.108496,0 2.619971,-0.13954 3.358827,-0.31009 1.028798,-0.23747 2.683574,-0.23631 7.066472,0.005 6.685711,0.36804 7.968297,0.60996 8.203557,1.5473 0.08954,0.35676 0.05841,0.7406 -0.06918,0.85297 -0.12759,0.11237 -1.422606,0.04 -2.877815,-0.16074 -1.455208,-0.20077 -3.423777,-0.29675 -4.374599,-0.21329 -1.271815,0.11164 -1.998774,0.0389 -2.750291,-0.27507 -1.051663,-0.43942 -3.180149,-0.34759 -4.184717,0.18052 -0.253931,0.13349 -2.57565,0.28591 -5.159375,0.33871 -3.458451,0.0707 -5.003094,0.20798 -5.85543,0.52056 -1.436953,0.52698 -1.236629,0.54345 -2.811005,-0.23101 z M 60.541538,181.8725 c 2.833396,-0.0432 4.600964,-0.18947 5.308922,-0.43925 0.767014,-0.27062 1.203624,-0.2983 1.574491,-0.0998 0.282244,0.15105 1.253845,0.25002 2.159114,0.21993 0.905266,-0.0301 2.617216,0.0402 3.80433,0.1562 l 2.158391,0.2109 0.572045,-1.12131 c 0.314627,-0.61672 0.50346,-1.18989 0.41963,-1.27372 -0.08383,-0.0838 -1.312527,0.0478 -2.730437,0.29252 -1.937353,0.33437 -3.489576,0.41076 -6.246111,0.30738 -2.017454,-0.0757 -3.765998,-0.19807 -3.885658,-0.27203 -0.119658,-0.0739 -0.712711,-0.0232 -1.317892,0.11277 -0.710055,0.15954 -1.372463,0.15237 -1.867565,-0.0202 -0.568068,-0.19803 -1.064064,-0.16631 -1.910701,0.12216 -1.007608,0.34333 -1.280949,0.34315 -2.300518,-0.002 -0.913217,-0.3087 -1.364155,-0.32907 -2.139839,-0.0967 -0.625068,0.18727 -1.942907,0.23153 -3.62054,0.12159 -1.730857,-0.11343 -2.935621,-0.069 -3.504139,0.12916 -0.695524,0.24246 -1.023245,0.22378 -1.661687,-0.0947 -1.001564,-0.49965 -2.280388,-0.49595 -2.947376,0.009 -0.684364,0.51763 -2.525245,0.49403 -3.290798,-0.0422 -0.569709,-0.39904 -0.727951,-0.3964 -2.155754,0.0359 -0.904986,0.27401 -1.740162,0.38214 -2.023718,0.26201 -0.404003,-0.17115 -2.35144,-0.35624 -4.71614,-0.44823 -0.291041,-0.0113 -0.919562,0.14216 -1.396714,0.34109 -0.828365,0.34534 -0.894218,0.32822 -1.45809,-0.37894 l -0.590542,-0.74061 -2.113785,0.6028 c -2.381068,0.67903 -5.222555,0.71276 -8.463786,0.1005 -1.018646,-0.19242 -1.876245,-0.32755 -1.905775,-0.30029 -0.02953,0.0273 0.145605,0.60379 0.389189,1.28117 0.282429,0.78541 0.637381,1.28387 0.979736,1.37586 0.949629,0.25516 3.26929,0.16095 3.977055,-0.16153 0.532752,-0.24274 0.889818,-0.23966 1.590488,0.0137 0.744532,0.26923 1.110848,0.25632 2.081882,-0.0734 0.986824,-0.33504 1.364694,-0.34597 2.324568,-0.0672 0.917308,0.26638 1.686716,0.26738 3.853005,0.005 3.362717,-0.40727 10.267945,-0.53123 16.872353,-0.30289 13.418316,2.65508 -5.88973,2.2508 14.182366,0.23536 z m -23.54124,-3.55925 c 0.495033,-0.19838 1.422223,-0.30692 2.082832,-0.24382 1.543373,0.14742 1.068014,0.14901 18.785417,-0.0632 12.577377,-0.15065 17.862858,-0.25907 18.463996,-0.37874 0.0415,-0.008 -0.05494,-0.25866 -0.214302,-0.55644 -0.348099,-0.65043 -0.730795,-2.88201 -0.92806,-5.41171 -0.07943,-1.01864 -0.256402,-2.44739 -0.393266,-3.175 -0.136864,-0.7276 -0.422781,-2.51694 -0.635376,-3.9763 -0.212593,-1.45936 -0.522753,-3.00717 -0.689245,-3.43958 -0.500385,-1.29959 -1.070041,-4.30146 -1.454629,-7.66537 -0.806159,-7.05128 -0.945419,-8.03083 -1.466995,-10.31875 -0.488913,-2.14463 -0.967124,-3.04271 -1.620192,-3.04271 -0.117708,0 -0.214014,0.29766 -0.214014,0.66146 v 0.66146 h -3.314816 c -1.823149,0 -5.053783,-0.18262 -7.179183,-0.40581 -3.472831,-0.3647 -3.909801,-0.3647 -4.312788,0 -0.246632,0.22319 -0.631034,0.40581 -0.854229,0.40581 -0.223192,0 -0.867563,0.36696 -1.431935,0.81547 -0.877777,0.69757 -1.179489,0.79409 -2.086902,0.66767 -0.583425,-0.0813 -1.585508,-0.19048 -2.226852,-0.24266 -0.797364,-0.0649 -1.312744,-0.27599 -1.62991,-0.66767 -0.354531,-0.43783 -0.751996,-0.57281 -1.68669,-0.57281 -0.672574,0 -1.616358,-0.16441 -2.097302,-0.36536 -0.59604,-0.24905 -1.019694,-0.28409 -1.330656,-0.11006 -0.315703,0.17667 -0.778803,0.12622 -1.503661,-0.1638 -0.65396,-0.26167 -1.852195,-0.41911 -3.189624,-0.41911 -2.093272,0 -2.13846,0.0136 -1.979665,0.59531 0.08938,0.32742 0.353727,2.02406 0.587444,3.77031 0.484523,3.6202 0.385537,12.4644 -0.159676,14.26665 -0.494845,1.63575 -1.566027,2.53439 -3.020984,2.53439 -1.015515,0 -1.378063,-0.15164 -2.253541,-0.94258 -1.77918,-1.60738 -2.007579,-2.71484 -1.96098,-9.50846 0.02196,-3.20146 0.160671,-6.83083 0.308253,-8.06527 0.147582,-1.23445 0.211886,-2.33577 0.142898,-2.4474 -0.06899,-0.11162 -2.247659,-0.20295 -4.841494,-0.20295 h -4.716063 l -0.155043,1.65364 c -0.08527,0.90951 -0.221917,2.96334 -0.303649,4.56407 -0.08173,1.60073 -0.211722,3.41643 -0.288867,4.03489 l -0.140261,1.12448 h 1.306817 c 0.718751,0 1.734251,-0.17859 2.256674,-0.39687 1.927645,-0.80542 3.877267,-0.25893 3.877267,1.08683 0,0.50299 -0.218241,0.75115 -0.917543,1.04333 -0.997886,0.41695 -2.051695,0.49915 -2.37077,0.18494 -0.110831,-0.10914 -1.046474,-0.19844 -2.079212,-0.19844 -1.781892,0 -1.885812,-0.0336 -2.036699,-0.65879 -0.222097,-0.92023 -0.504775,-0.36222 -0.825556,1.62965 -0.144936,0.89997 -0.338931,1.75833 -0.431099,1.90746 -0.09217,0.14913 -0.203371,0.87221 -0.247118,1.60683 -0.125238,2.10311 -0.30222,3.88114 -0.514829,5.17214 -0.275071,1.67031 -0.333499,2.91114 -0.136855,2.90636 0.09184,-0.002 1.119473,-0.24514 2.28364,-0.5398 4.31238,-1.09148 10.34484,-1.264 12.527412,-0.35827 0.69932,0.2902 1.131676,0.30564 2.054201,0.0733 0.642652,-0.16183 1.551411,-0.21764 2.01947,-0.12402 0.468058,0.0936 2.99648,-0.008 5.618715,-0.22681 10.844671,-0.90304 12.120285,-0.9498 12.65707,-0.46402 0.636505,0.57603 4.972986,0.61802 7.907385,0.0766 1.822103,-0.33622 2.201145,-0.33037 3.571875,0.0551 2.603833,0.73224 6.415828,0.96801 9.10485,0.56313 0.835927,-0.12586 0.977471,-0.0667 1.120351,0.46853 0.213747,0.80066 -0.421222,1.27405 -1.70892,1.27405 -0.542208,0 -1.540396,0.23772 -2.2182,0.52826 -1.094179,0.46902 -1.276771,0.48385 -1.628333,0.13229 -0.217781,-0.21778 -0.648184,-0.39597 -0.956451,-0.39597 -0.732448,0 -3.496185,-0.50058 -4.770183,-0.86399 -0.790207,-0.22541 -1.407308,-0.19148 -2.910417,0.16006 -2.836196,0.66331 -7.167613,0.60611 -8.53236,-0.11269 -0.962655,-0.50701 -1.32863,-0.53853 -4.487715,-0.38649 -3.229121,0.1554 -4.340728,0.27433 -8.797396,0.94118 -3.908938,0.58489 -7.836516,0.7839 -8.261816,0.41864 -0.818406,-0.70288 -2.28505,-0.95046 -5.630434,-0.95046 -2.272871,0 -4.035422,0.14652 -5.229436,0.43471 -1.659105,0.40045 -1.884964,0.40113 -2.865867,0.009 l -1.064823,-0.42606 -0.447249,1.51271 c -0.245986,0.83199 -0.426453,2.17524 -0.401034,2.98501 0.02543,0.80977 -0.06363,1.76227 -0.197872,2.11667 -0.134247,0.3544 -0.330676,1.62662 -0.436512,2.82717 l -0.192429,2.18281 1.548892,2.3e-4 c 0.85189,1.2e-4 2.831214,0.12182 4.398495,0.27044 2.31409,0.21944 3.1345,0.19717 4.365625,-0.1185 1.878547,-0.48169 4.123436,-0.53078 7.770759,-0.16993 2.245405,0.22215 4.67056,0.6113 4.891598,0.78494 0.0186,0.0146 0.435327,-0.13432 0.926042,-0.33097 z m 7.209433,-24.53619 c -0.273016,-0.10535 -0.71483,-0.45409 -0.981808,-0.77497 -0.458848,-0.55148 -0.632621,-0.5753 -3.175,-0.43532 -1.479272,0.0814 -3.076538,0.22715 -3.549481,0.32379 -0.752943,0.15385 -0.859896,0.1066 -0.859896,-0.37994 0,-0.83123 1.406687,-1.29127 4.603071,-1.50538 2.568313,-0.17204 2.84834,-0.14255 3.761298,0.39611 0.951873,0.56162 1.102884,0.57224 4.314661,0.30359 1.830544,-0.15311 4.280763,-0.33221 5.44493,-0.39799 1.164166,-0.0658 2.489178,-0.19861 2.944473,-0.29516 0.507879,-0.10771 0.898531,-0.0611 1.010801,0.12053 0.218393,0.35337 8.548183,0.12447 9.789161,-0.269 0.934786,-0.29639 1.384003,0.0558 1.513768,1.18687 0.115171,1.00381 -0.547494,1.46571 -1.427265,0.99487 -0.49116,-0.26286 -1.462429,-0.27325 -4.581287,-0.049 -2.176892,0.1565 -4.464217,0.35542 -5.082945,0.44206 -0.804238,0.11261 -1.311148,0.0355 -1.778024,-0.27038 -0.571902,-0.37473 -1.040408,-0.39388 -3.769831,-0.15409 -1.714223,0.1506 -4.143548,0.42709 -5.398501,0.61442 -1.254953,0.18732 -2.505109,0.25439 -2.778125,0.14903 z M 32.130734,140.5703 c -0.145452,-0.73564 -0.210748,-1.39123 -0.145105,-1.45687 0.06565,-0.0656 1.64306,-0.32722 3.505364,-0.58127 3.922152,-0.53507 3.599196,-0.21831 4.30943,-4.2267 l 0.443328,-2.50204 -0.821465,-1.50329 c -0.631902,-1.15639 -0.951471,-2.29704 -1.384821,-4.94288 -1.069761,-6.53148 -1.793836,-8.54996 -3.677555,-10.25179 -1.638853,-1.4806 -3.904329,-1.90869 -6.065594,-1.14615 -2.677152,0.94456 -4.369194,2.83244 -5.235689,5.84169 -0.413382,1.43564 -0.426487,2.00571 -0.136983,5.95937 l 0.32013,4.37188 -0.852244,2.17726 c -0.783095,2.00061 -0.826265,2.26397 -0.532072,3.24589 0.653394,2.18084 2.46819,3.16331 5.84318,3.16331 h 1.917576 c -0.518408,3.85129 -0.892552,7.50227 -1.157326,10.68688 -0.143399,1.75637 -0.06798,3.59958 -0.03505,5.20324 0.03535,1.72209 0.06263,3.17818 0.954682,4.26321 0.56366,0.68559 2.127406,1.0698 2.814265,0.50768 1.477813,-1.20942 1.209829,-3.28783 1.195437,-5.63607 -0.01435,-2.34148 0.02721,-4.95123 -0.419558,-7.23527 -0.576316,-2.94634 -0.723823,-5.35071 -0.839961,-5.93808 z m -5.918641,-9.80095 c -1.489885,-0.86869 -2.097236,-1.45071 -1.742581,-1.6699 0.273627,-0.16911 3.765701,1.91202 3.765701,2.2442 0,0.41485 -0.636558,0.23415 -2.02312,-0.5743 z m 24.429506,10.0199 c 0.45706,-0.42938 0.612365,-0.86555 0.612365,-1.71979 0,-0.62948 0.119062,-1.1445 0.264583,-1.1445 0.145521,0 0.264584,0.40969 0.264584,0.91042 0,1.14875 0.473855,1.46458 1.077994,0.7185 0.84105,-1.03865 0.09879,-3.17928 -1.368084,-3.94548 -0.407148,-0.21267 -1.651497,-0.32124 -3.458636,-0.30177 -2.963257,0.0319 -3.395025,-0.0618 -3.395025,-0.73698 0,-0.33721 0.07315,-0.35294 0.395843,-0.0851 0.291097,0.24159 1.058519,0.27884 2.900114,0.14077 2.930938,-0.21974 4.045085,0.0507 5.029907,1.22114 0.368646,0.43811 0.744408,1.26023 0.83503,1.82694 0.100121,0.62614 0.333621,1.07689 0.595165,1.14894 1.164629,0.32078 6.147728,0.74446 9.188108,0.7812 l 3.413126,0.0412 0.09345,-0.79375 c 0.124375,-1.0565 -0.454266,-5.90619 -0.874858,-7.33229 -0.387382,-1.31351 -0.701701,-1.43676 -2.278565,-0.89349 -0.633982,0.21842 -1.216687,0.33314 -1.2949,0.25493 -0.239784,-0.23979 0.824619,-0.87652 1.757934,-1.05161 1.140941,-0.21404 1.240623,-0.41515 0.767289,-1.54801 -0.346604,-0.82954 -0.462341,-0.90945 -1.013603,-0.69986 -1.057198,0.40195 -2.651988,0.45461 -2.776194,0.0917 -0.07519,-0.21971 0.182857,-0.33473 0.768758,-0.34266 0.485068,-0.007 1.230992,-0.16088 1.657609,-0.34291 l 0.775666,-0.33099 -1.00489,-1.11229 c -1.233496,-1.36533 -1.953766,-1.42708 -2.944265,-0.2524 -2.15728,2.55842 -1.842916,5.95803 0.823902,8.90988 l 0.991039,1.09696 -1.031475,-0.16189 c -0.567312,-0.089 -2.084848,-0.24211 -3.372306,-0.34014 l -2.340827,-0.17824 -0.600122,-1.89553 c -1.424824,-4.5004 -4.117616,-6.64898 -7.470786,-5.96096 -1.851298,0.37986 -4.065114,1.84451 -5.132187,3.39545 -0.777245,1.12969 -0.923859,1.64515 -1.341591,4.71675 -0.257942,1.89665 -0.472615,3.52309 -0.477052,3.61431 -0.0044,0.0912 0.579554,0.41864 1.297755,0.7276 1.530858,0.65856 3.248388,0.73466 3.721264,0.16488 0.528582,-0.63691 0.921515,-0.46011 0.985134,0.44326 0.0325,0.4615 0.161422,0.94142 0.286488,1.06648 0.351446,0.35145 1.105758,-0.0525 1.142701,-0.61201 0.04775,-0.72319 0.08319,-0.85972 0.31999,-1.23278 0.357357,-0.56299 0.705271,-0.0855 0.705271,0.96802 0,1.51222 0.465246,1.75226 1.504302,0.77611 z m 9.608198,-6.40284 c 0,-0.0544 -0.302119,-0.63952 -0.671375,-1.30019 -0.369255,-0.66067 -0.781584,-1.71746 -0.916286,-2.34843 l -0.244909,-1.14721 0.07462,1.47875 c 0.07273,1.44113 0.948558,3.41604 1.514943,3.41604 0.133652,0 0.243004,-0.0445 0.243004,-0.099 z m -38.650749,-5.14217 -0.02159,-1.24116 -0.360492,0.82177 c -0.198271,0.45197 -0.294085,1.07571 -0.212921,1.38608 0.248102,0.94875 0.617857,0.348 0.594997,-0.96669 z"
       id="path826"
       inkscape:connector-curvature="0"
       sodipodi:nodetypes="cccccccccsscccccccsscsccccccsccscscsscccccccsssccsssscccsccsccccccccscccccccccccsccccccccsccscccscccccsccccccccccscccccccccccccccccccscccccccccccsscccccsscsscsccsccccscccscsssssscscccccscsccscscccccccccccsccssssccccscscccsccsccccscccccccsssccccccccccsccccccscsscccscccccsssssccsccsccssscccscscccccccccsccccccsssccccsssscccccscscccccccsccccccc" />
    <rect
       style="opacity:1;fill:none;fill-opacity:1;stroke:#000000;stroke-width:2;stroke-miterlimit:4;stroke-dasharray:none;stroke-opacity:1"
       id="rect828"
       width="63.34288"
       height="33.94323"
       x="-69.843369"
       y="135.03467" />
    <rect
       style="opacity:1;fill:#ffffff;fill-opacity:1;stroke:#000000;stroke-width:2.46102452;stroke-miterlimit:4;stroke-dasharray:none;stroke-opacity:1"
       id="rect828-3"
       width="77.944191"
       height="41.767559"
       x="-77.14402"
       y="111.34457" />
  </g>
</svg>
